<svg width="144" height="57" viewBox="0 0 144 57" fill="none" xmlns="http://www.w3.org/2000/svg">
<g clip-path="url(#clip0_806_1253)">
<path d="M17.3693 0H13.0293V4.34H17.3693V0Z" fill="#24150E"/>
<path d="M21.7091 0H17.3691V4.34H21.7091V0Z" fill="#24150E"/>
<path d="M26.0509 0H21.7109V4.34H26.0509V0Z" fill="#24150E"/>
<path d="M30.3908 0H26.0508V4.34H30.3908V0Z" fill="#24150E"/>
<path d="M34.7404 0H30.4004V4.34H34.7404V0Z" fill="#24150E"/>
<path d="M39.0802 0H34.7402V4.34H39.0802V0Z" fill="#24150E"/>
<path d="M43.4201 0H39.0801V4.34H43.4201V0Z" fill="#24150E"/>
<path d="M47.7599 0H43.4199V4.34H47.7599V0Z" fill="#24150E"/>
<path d="M52.1095 0H47.7695V4.34H52.1095V0Z" fill="#24150E"/>
<path d="M56.4494 0H52.1094V4.34H56.4494V0Z" fill="#24150E"/>
<path d="M60.7892 0H56.4492V4.34H60.7892V0Z" fill="#24150E"/>
<path d="M65.1291 0H60.7891V4.34H65.1291V0Z" fill="#24150E"/>
<path d="M69.4806 0H65.1406V4.34H69.4806V0Z" fill="#24150E"/>
<path d="M73.8205 0H69.4805V4.34H73.8205V0Z" fill="#24150E"/>
<path d="M78.1603 0H73.8203V4.34H78.1603V0Z" fill="#24150E"/>
<path d="M82.5002 0H78.1602V4.34H82.5002V0Z" fill="#24150E"/>
<path d="M86.8498 0H82.5098V4.34H86.8498V0Z" fill="#24150E"/>
<path d="M91.1896 0H86.8496V4.34H91.1896V0Z" fill="#24150E"/>
<path d="M130.27 0H125.93V4.34H130.27V0Z" fill="#24150E"/>
<path d="M13.0197 4.33984H8.67969V8.67984H13.0197V4.33984Z" fill="#24150E"/>
<path d="M17.3693 4.33984H13.0293V8.67984H17.3693V4.33984Z" fill="#BBC8DA"/>
<path d="M21.7091 4.33984H17.3691V8.67984H21.7091V4.33984Z" fill="#BBC8DA"/>
<path d="M26.0509 4.33984H21.7109V8.67984H26.0509V4.33984Z" fill="#BBC8DA"/>
<path d="M30.3908 4.33984H26.0508V8.67984H30.3908V4.33984Z" fill="#BBC8DA"/>
<path d="M34.7404 4.33984H30.4004V8.67984H34.7404V4.33984Z" fill="#BBC8DA"/>
<path d="M39.0802 4.33984H34.7402V8.67984H39.0802V4.33984Z" fill="#BBC8DA"/>
<path d="M43.4201 4.33984H39.0801V8.67984H43.4201V4.33984Z" fill="#BBC8DA"/>
<path d="M47.7599 4.33984H43.4199V8.67984H47.7599V4.33984Z" fill="#BBC8DA"/>
<path d="M52.1095 4.33984H47.7695V8.67984H52.1095V4.33984Z" fill="#BBC8DA"/>
<path d="M56.4494 4.33984H52.1094V8.67984H56.4494V4.33984Z" fill="#BBC8DA"/>
<path d="M60.7892 4.33984H56.4492V8.67984H60.7892V4.33984Z" fill="#BBC8DA"/>
<path d="M65.1291 4.33984H60.7891V8.67984H65.1291V4.33984Z" fill="#BBC8DA"/>
<path d="M69.4806 4.33984H65.1406V8.67984H69.4806V4.33984Z" fill="#BBC8DA"/>
<path d="M73.8205 4.33984H69.4805V8.67984H73.8205V4.33984Z" fill="#BBC8DA"/>
<path d="M78.1603 4.33984H73.8203V8.67984H78.1603V4.33984Z" fill="#BBC8DA"/>
<path d="M82.5002 4.33984H78.1602V8.67984H82.5002V4.33984Z" fill="#BBC8DA"/>
<path d="M86.8498 4.33984H82.5098V8.67984H86.8498V4.33984Z" fill="#BBC8DA"/>
<path d="M91.1896 4.33984H86.8496V8.67984H91.1896V4.33984Z" fill="#BBC8DA"/>
<path d="M130.27 4.33984H125.93V8.67984H130.27V4.33984Z" fill="#BBC8DA"/>
<path d="M134.61 4.33984H130.27V8.67984H134.61V4.33984Z" fill="#24150E"/>
<path d="M8.67984 8.68018H4.33984V13.0202H8.67984V8.68018Z" fill="#24150E"/>
<path d="M13.0197 8.68018H8.67969V13.0202H13.0197V8.68018Z" fill="#4577A0"/>
<path d="M17.3693 8.68018H13.0293V13.0202H17.3693V8.68018Z" fill="#4577A0"/>
<path d="M130.27 13.0298H4.33984V43.4298H130.27V13.0298Z" fill="#4577A0"/>
<path d="M21.7091 8.68018H17.3691V13.0202H21.7091V8.68018Z" fill="#4577A0"/>
<path d="M26.0509 8.68018H21.7109V13.0202H26.0509V8.68018Z" fill="#4577A0"/>
<path d="M30.3908 8.68018H26.0508V13.0202H30.3908V8.68018Z" fill="#4577A0"/>
<path d="M34.7404 8.68018H30.4004V13.0202H34.7404V8.68018Z" fill="#4577A0"/>
<path d="M39.0802 8.68018H34.7402V13.0202H39.0802V8.68018Z" fill="#4577A0"/>
<path d="M43.4201 8.68018H39.0801V13.0202H43.4201V8.68018Z" fill="#4577A0"/>
<path d="M47.7599 8.68018H43.4199V13.0202H47.7599V8.68018Z" fill="#4577A0"/>
<path d="M52.1095 8.68018H47.7695V13.0202H52.1095V8.68018Z" fill="#4577A0"/>
<path d="M56.4494 8.68018H52.1094V13.0202H56.4494V8.68018Z" fill="#4577A0"/>
<path d="M60.7892 8.68018H56.4492V13.0202H60.7892V8.68018Z" fill="#4577A0"/>
<path d="M65.1291 8.68018H60.7891V13.0202H65.1291V8.68018Z" fill="#4577A0"/>
<path d="M69.4806 8.68018H65.1406V13.0202H69.4806V8.68018Z" fill="#4577A0"/>
<path d="M73.8205 8.68018H69.4805V13.0202H73.8205V8.68018Z" fill="#4577A0"/>
<path d="M78.1603 8.68018H73.8203V13.0202H78.1603V8.68018Z" fill="#4577A0"/>
<path d="M82.5002 8.68018H78.1602V13.0202H82.5002V8.68018Z" fill="#4577A0"/>
<path d="M86.8498 8.68018H82.5098V13.0202H86.8498V8.68018Z" fill="#4577A0"/>
<path d="M91.1896 8.68018H86.8496V13.0202H91.1896V8.68018Z" fill="#4577A0"/>
<path d="M130.27 8.68018H125.93V13.0202H130.27V8.68018Z" fill="#4577A0"/>
<path d="M134.61 8.68018H130.27V13.0202H134.61V8.68018Z" fill="#BBC8DA"/>
<path d="M138.949 8.68018H134.609V13.0202H138.949V8.68018Z" fill="#24150E"/>
<path d="M4.34 13.0298H0V17.3698H4.34V13.0298Z" fill="#24150E"/>
<path d="M8.67984 13.0298H4.33984V17.3698H8.67984V13.0298Z" fill="#223756"/>
<path d="M13.0197 13.0298H8.67969V17.3698H13.0197V13.0298Z" fill="#4577A0"/>
<path d="M134.61 13.0298H130.27V17.3698H134.61V13.0298Z" fill="#4577A0"/>
<path d="M138.949 13.0298H134.609V17.3698H138.949V13.0298Z" fill="#BBC8DA"/>
<path d="M143.301 13.0298H138.961V17.3698H143.301V13.0298Z" fill="#24150E"/>
<path d="M4.34 17.3701H0V21.7101H4.34V17.3701Z" fill="#24150E"/>
<path d="M8.67984 17.3701H4.33984V21.7101H8.67984V17.3701Z" fill="#223756"/>
<path d="M13.0197 17.3701H8.67969V21.7101H13.0197V17.3701Z" fill="#4577A0"/>
<path d="M134.61 17.3701H130.27V21.7101H134.61V17.3701Z" fill="#4577A0"/>
<path d="M138.949 17.3701H134.609V21.7101H138.949V17.3701Z" fill="#BBC8DA"/>
<path d="M143.301 17.3701H138.961V21.7101H143.301V17.3701Z" fill="#24150E"/>
<path d="M4.34 21.71H0V26.05H4.34V21.71Z" fill="#24150E"/>
<path d="M8.67984 21.71H4.33984V26.05H8.67984V21.71Z" fill="#223756"/>
<path d="M13.0197 21.71H8.67969V26.05H13.0197V21.71Z" fill="#4577A0"/>
<path d="M134.61 21.71H130.27V26.05H134.61V21.71Z" fill="#4577A0"/>
<path d="M138.949 21.71H134.609V26.05H138.949V21.71Z" fill="#BBC8DA"/>
<path d="M143.301 21.71H138.961V26.05H143.301V21.71Z" fill="#24150E"/>
<path d="M4.34 26.0498H0V30.3898H4.34V26.0498Z" fill="#24150E"/>
<path d="M8.67984 26.0498H4.33984V30.3898H8.67984V26.0498Z" fill="#223756"/>
<path d="M13.0197 26.0498H8.67969V30.3898H13.0197V26.0498Z" fill="#4577A0"/>
<path d="M134.61 26.0498H130.27V30.3898H134.61V26.0498Z" fill="#4577A0"/>
<path d="M138.949 26.0498H134.609V30.3898H138.949V26.0498Z" fill="#BBC8DA"/>
<path d="M143.301 26.0498H138.961V30.3898H143.301V26.0498Z" fill="#24150E"/>
<path d="M4.34 30.3999H0V34.7399H4.34V30.3999Z" fill="#24150E"/>
<path d="M8.67984 30.3999H4.33984V34.7399H8.67984V30.3999Z" fill="#223756"/>
<path d="M13.0197 30.3999H8.67969V34.7399H13.0197V30.3999Z" fill="#4577A0"/>
<path d="M134.61 30.3999H130.27V34.7399H134.61V30.3999Z" fill="#4577A0"/>
<path d="M138.949 30.3999H134.609V34.7399H138.949V30.3999Z" fill="#BBC8DA"/>
<path d="M143.301 30.3999H138.961V34.7399H143.301V30.3999Z" fill="#24150E"/>
<path d="M4.34 34.7402H0V39.0802H4.34V34.7402Z" fill="#24150E"/>
<path d="M8.67984 34.7402H4.33984V39.0802H8.67984V34.7402Z" fill="#223756"/>
<path d="M13.0197 34.7402H8.67969V39.0802H13.0197V34.7402Z" fill="#4577A0"/>
<path d="M134.61 34.7402H130.27V39.0802H134.61V34.7402Z" fill="#4577A0"/>
<path d="M138.949 34.7402H134.609V39.0802H138.949V34.7402Z" fill="#BBC8DA"/>
<path d="M143.301 34.7402H138.961V39.0802H143.301V34.7402Z" fill="#24150E"/>
<path d="M4.34 39.0801H0V43.4201H4.34V39.0801Z" fill="#24150E"/>
<path d="M8.67984 39.0801H4.33984V43.4201H8.67984V39.0801Z" fill="#223756"/>
<path d="M13.0197 39.0801H8.67969V43.4201H13.0197V39.0801Z" fill="#4577A0"/>
<path d="M134.61 39.0801H130.27V43.4201H134.61V39.0801Z" fill="#4577A0"/>
<path d="M138.949 39.0801H134.609V43.4201H138.949V39.0801Z" fill="#BBC8DA"/>
<path d="M143.301 39.0801H138.961V43.4201H143.301V39.0801Z" fill="#24150E"/>
<path d="M8.67984 43.4199H4.33984V47.7599H8.67984V43.4199Z" fill="#24150E"/>
<path d="M13.0197 43.4199H8.67969V47.7599H13.0197V43.4199Z" fill="#223756"/>
<path d="M17.3693 43.4199H13.0293V47.7599H17.3693V43.4199Z" fill="#4577A0"/>
<path d="M21.7091 43.4199H17.3691V47.7599H21.7091V43.4199Z" fill="#4577A0"/>
<path d="M26.0509 43.4199H21.7109V47.7599H26.0509V43.4199Z" fill="#4577A0"/>
<path d="M30.3908 43.4199H26.0508V47.7599H30.3908V43.4199Z" fill="#4577A0"/>
<path d="M34.7404 43.4199H30.4004V47.7599H34.7404V43.4199Z" fill="#4577A0"/>
<path d="M39.0802 43.4199H34.7402V47.7599H39.0802V43.4199Z" fill="#4577A0"/>
<path d="M43.4201 43.4199H39.0801V47.7599H43.4201V43.4199Z" fill="#4577A0"/>
<path d="M47.7599 43.4199H43.4199V47.7599H47.7599V43.4199Z" fill="#4577A0"/>
<path d="M52.1095 43.4199H47.7695V47.7599H52.1095V43.4199Z" fill="#4577A0"/>
<path d="M56.4494 43.4199H52.1094V47.7599H56.4494V43.4199Z" fill="#4577A0"/>
<path d="M60.7892 43.4199H56.4492V47.7599H60.7892V43.4199Z" fill="#4577A0"/>
<path d="M65.1291 43.4199H60.7891V47.7599H65.1291V43.4199Z" fill="#4577A0"/>
<path d="M69.4806 43.4199H65.1406V47.7599H69.4806V43.4199Z" fill="#4577A0"/>
<path d="M73.8205 43.4199H69.4805V47.7599H73.8205V43.4199Z" fill="#4577A0"/>
<path d="M78.1603 43.4199H73.8203V47.7599H78.1603V43.4199Z" fill="#4577A0"/>
<path d="M82.5002 43.4199H78.1602V47.7599H82.5002V43.4199Z" fill="#4577A0"/>
<path d="M86.8498 43.4199H82.5098V47.7599H86.8498V43.4199Z" fill="#4577A0"/>
<path d="M91.1896 43.4199H86.8496V47.7599H91.1896V43.4199Z" fill="#4577A0"/>
<path d="M130.27 43.4199H125.93V47.7599H130.27V43.4199Z" fill="#4577A0"/>
<path d="M134.61 43.4199H130.27V47.7599H134.61V43.4199Z" fill="#4577A0"/>
<path d="M138.949 43.4199H134.609V47.7599H138.949V43.4199Z" fill="#24150E"/>
<path d="M13.0197 47.77H8.67969V52.11H13.0197V47.77Z" fill="#24150E"/>
<path d="M17.3693 47.77H13.0293V52.11H17.3693V47.77Z" fill="#223756"/>
<path d="M21.7091 47.77H17.3691V52.11H21.7091V47.77Z" fill="#223756"/>
<path d="M26.0509 47.77H21.7109V52.11H26.0509V47.77Z" fill="#223756"/>
<path d="M30.3908 47.77H26.0508V52.11H30.3908V47.77Z" fill="#223756"/>
<path d="M34.7404 47.77H30.4004V52.11H34.7404V47.77Z" fill="#223756"/>
<path d="M39.0802 47.77H34.7402V52.11H39.0802V47.77Z" fill="#223756"/>
<path d="M43.4201 47.77H39.0801V52.11H43.4201V47.77Z" fill="#223756"/>
<path d="M47.7599 47.77H43.4199V52.11H47.7599V47.77Z" fill="#223756"/>
<path d="M52.1095 47.77H47.7695V52.11H52.1095V47.77Z" fill="#223756"/>
<path d="M56.4494 47.77H52.1094V52.11H56.4494V47.77Z" fill="#223756"/>
<path d="M60.7892 47.77H56.4492V52.11H60.7892V47.77Z" fill="#223756"/>
<path d="M65.1291 47.77H60.7891V52.11H65.1291V47.77Z" fill="#223756"/>
<path d="M69.4806 47.77H65.1406V52.11H69.4806V47.77Z" fill="#223756"/>
<path d="M73.8205 47.77H69.4805V52.11H73.8205V47.77Z" fill="#223756"/>
<path d="M78.1603 47.77H73.8203V52.11H78.1603V47.77Z" fill="#223756"/>
<path d="M82.5002 47.77H78.1602V52.11H82.5002V47.77Z" fill="#223756"/>
<path d="M86.8498 47.77H82.5098V52.11H86.8498V47.77Z" fill="#223756"/>
<path d="M91.1896 47.77H86.8496V52.11H91.1896V47.77Z" fill="#223756"/>
<path d="M130.27 47.77H125.93V52.11H130.27V47.77Z" fill="#223756"/>
<path d="M134.61 47.77H130.27V52.11H134.61V47.77Z" fill="#24150E"/>
<path d="M17.3693 52.1099H13.0293V56.4499H17.3693V52.1099Z" fill="#24150E"/>
<path d="M21.7091 52.1099H17.3691V56.4499H21.7091V52.1099Z" fill="#24150E"/>
<path d="M26.0509 52.1099H21.7109V56.4499H26.0509V52.1099Z" fill="#24150E"/>
<path d="M30.3908 52.1099H26.0508V56.4499H30.3908V52.1099Z" fill="#24150E"/>
<path d="M34.7404 52.1099H30.4004V56.4499H34.7404V52.1099Z" fill="#24150E"/>
<path d="M39.0802 52.1099H34.7402V56.4499H39.0802V52.1099Z" fill="#24150E"/>
<path d="M43.4201 52.1099H39.0801V56.4499H43.4201V52.1099Z" fill="#24150E"/>
<path d="M47.7599 52.1099H43.4199V56.4499H47.7599V52.1099Z" fill="#24150E"/>
<path d="M52.1095 52.1099H47.7695V56.4499H52.1095V52.1099Z" fill="#24150E"/>
<path d="M56.4494 52.1099H52.1094V56.4499H56.4494V52.1099Z" fill="#24150E"/>
<path d="M60.7892 52.1099H56.4492V56.4499H60.7892V52.1099Z" fill="#24150E"/>
<path d="M65.1291 52.1099H60.7891V56.4499H65.1291V52.1099Z" fill="#24150E"/>
<path d="M69.4806 52.1099H65.1406V56.4499H69.4806V52.1099Z" fill="#24150E"/>
<path d="M73.8205 52.1099H69.4805V56.4499H73.8205V52.1099Z" fill="#24150E"/>
<path d="M78.1603 52.1099H73.8203V56.4499H78.1603V52.1099Z" fill="#24150E"/>
<path d="M82.5002 52.1099H78.1602V56.4499H82.5002V52.1099Z" fill="#24150E"/>
<path d="M86.8498 52.1099H82.5098V56.4499H86.8498V52.1099Z" fill="#24150E"/>
<path d="M91.1896 52.1099H86.8496V56.4499H91.1896V52.1099Z" fill="#24150E"/>
<path d="M95.5294 0H91.1895V4.34H95.5294V0Z" fill="#24150E"/>
<path d="M99.8693 0H95.5293V4.34H99.8693V0Z" fill="#24150E"/>
<path d="M104.221 0H99.8809V4.34H104.221V0Z" fill="#24150E"/>
<path d="M108.561 0H104.221V4.34H108.561V0Z" fill="#24150E"/>
<path d="M112.901 0H108.561V4.34H112.901V0Z" fill="#24150E"/>
<path d="M95.5294 4.33984H91.1895V8.67984H95.5294V4.33984Z" fill="#BBC8DA"/>
<path d="M99.8693 4.33984H95.5293V8.67984H99.8693V4.33984Z" fill="#BBC8DA"/>
<path d="M104.221 4.33984H99.8809V8.67984H104.221V4.33984Z" fill="#BBC8DA"/>
<path d="M108.561 4.33984H104.221V8.67984H108.561V4.33984Z" fill="#BBC8DA"/>
<path d="M112.901 4.33984H108.561V8.67984H112.901V4.33984Z" fill="#BBC8DA"/>
<path d="M95.5294 8.68018H91.1895V13.0202H95.5294V8.68018Z" fill="#4577A0"/>
<path d="M99.8693 8.68018H95.5293V13.0202H99.8693V8.68018Z" fill="#4577A0"/>
<path d="M104.221 8.68018H99.8809V13.0202H104.221V8.68018Z" fill="#4577A0"/>
<path d="M108.561 8.68018H104.221V13.0202H108.561V8.68018Z" fill="#4577A0"/>
<path d="M112.901 8.68018H108.561V13.0202H112.901V8.68018Z" fill="#4577A0"/>
<path d="M95.5294 43.4199H91.1895V47.7599H95.5294V43.4199Z" fill="#4577A0"/>
<path d="M99.8693 43.4199H95.5293V47.7599H99.8693V43.4199Z" fill="#4577A0"/>
<path d="M104.221 43.4199H99.8809V47.7599H104.221V43.4199Z" fill="#4577A0"/>
<path d="M108.561 43.4199H104.221V47.7599H108.561V43.4199Z" fill="#4577A0"/>
<path d="M112.901 43.4199H108.561V47.7599H112.901V43.4199Z" fill="#4577A0"/>
<path d="M95.5294 47.77H91.1895V52.11H95.5294V47.77Z" fill="#223756"/>
<path d="M99.8693 47.77H95.5293V52.11H99.8693V47.77Z" fill="#223756"/>
<path d="M104.221 47.77H99.8809V52.11H104.221V47.77Z" fill="#223756"/>
<path d="M108.561 47.77H104.221V52.11H108.561V47.77Z" fill="#223756"/>
<path d="M112.901 47.77H108.561V52.11H112.901V47.77Z" fill="#223756"/>
<path d="M95.5294 52.1099H91.1895V56.4499H95.5294V52.1099Z" fill="#24150E"/>
<path d="M99.8693 52.1099H95.5293V56.4499H99.8693V52.1099Z" fill="#24150E"/>
<path d="M104.221 52.1099H99.8809V56.4499H104.221V52.1099Z" fill="#24150E"/>
<path d="M108.561 52.1099H104.221V56.4499H108.561V52.1099Z" fill="#24150E"/>
<path d="M112.901 52.1099H108.561V56.4499H112.901V52.1099Z" fill="#24150E"/>
<path d="M117.24 0H112.9V4.34H117.24V0Z" fill="#24150E"/>
<path d="M117.24 4.33984H112.9V8.67984H117.24V4.33984Z" fill="#BBC8DA"/>
<path d="M117.24 8.68018H112.9V13.0202H117.24V8.68018Z" fill="#4577A0"/>
<path d="M117.24 43.4199H112.9V47.7599H117.24V43.4199Z" fill="#4577A0"/>
<path d="M117.24 47.77H112.9V52.11H117.24V47.77Z" fill="#223756"/>
<path d="M117.24 52.1099H112.9V56.4499H117.24V52.1099Z" fill="#24150E"/>
<path d="M121.58 0H117.24V4.34H121.58V0Z" fill="#24150E"/>
<path d="M125.93 0H121.59V4.34H125.93V0Z" fill="#24150E"/>
<path d="M121.58 4.33984H117.24V8.67984H121.58V4.33984Z" fill="#BBC8DA"/>
<path d="M125.93 4.33984H121.59V8.67984H125.93V4.33984Z" fill="#BBC8DA"/>
<path d="M121.58 8.68018H117.24V13.0202H121.58V8.68018Z" fill="#4577A0"/>
<path d="M125.93 8.68018H121.59V13.0202H125.93V8.68018Z" fill="#4577A0"/>
<path d="M121.58 43.4199H117.24V47.7599H121.58V43.4199Z" fill="#4577A0"/>
<path d="M125.93 43.4199H121.59V47.7599H125.93V43.4199Z" fill="#4577A0"/>
<path d="M121.58 47.77H117.24V52.11H121.58V47.77Z" fill="#223756"/>
<path d="M125.93 47.77H121.59V52.11H125.93V47.77Z" fill="#223756"/>
<path d="M121.58 52.1099H117.24V56.4499H121.58V52.1099Z" fill="#24150E"/>
<path d="M125.93 52.1099H121.59V56.4499H125.93V52.1099Z" fill="#24150E"/>
<path d="M130.27 52.1099H125.93V56.4499H130.27V52.1099Z" fill="#24150E"/>
<path d="M19 30.8214H21.7857V32.2143H25.9643V29.4286H20.3929V28.0357H19V22.4643H20.3929V21.0714H27.3571V22.4643H28.75V25.25H25.9643V23.8571H21.7857V26.6429H27.3571V28.0357H28.75V33.6071H27.3571V35H20.3929V33.6071H19V30.8214ZM32.9322 26.6429H37.1108V21.0714H39.8965V35H37.1108V29.4286H32.9322V35H30.1465V21.0714H32.9322V26.6429ZM41.293 25.25H42.6858V23.8571H44.0787V22.4643H45.4715V21.0714H46.8644V22.4643H48.2573V23.8571H49.6501V25.25H51.043V35H48.2573V32.2143H44.0787V35H41.293V25.25ZM44.0787 29.4286H48.2573V26.6429H46.8644V25.25H45.4715V26.6429H44.0787V29.4286ZM52.4395 21.0714H60.7966V22.4643H62.1895V28.0357H60.7966V29.4286H62.1895V35H59.4037V30.8214H55.2252V35H52.4395V21.0714ZM59.4037 28.0357V23.8571H55.2252V28.0357H59.4037ZM66.3717 32.2143H71.9431V35H63.5859V21.0714H71.9431V23.8571H66.3717V26.6429H70.5502V29.4286H66.3717V32.2143ZM83.0751 26.6429H88.6465V33.6071H87.2536V35H80.2893V33.6071H78.8965V22.4643H80.2893V21.0714H87.2536V22.4643H88.6465V25.25H85.8608V23.8571H83.0751V25.25H81.6822V30.8214H83.0751V32.2143H85.8608V29.4286H83.0751V26.6429ZM90.043 25.25H91.4358V23.8571H92.8287V22.4643H94.2215V21.0714H95.6144V22.4643H97.0073V23.8571H98.4001V25.25H99.793V35H97.0073V32.2143H92.8287V35H90.043V25.25ZM92.8287 29.4286H97.0073V26.6429H95.6144V25.25H94.2215V26.6429H92.8287V29.4286ZM106.761 28.0357H105.368V26.6429H103.975V35H101.189V21.0714H103.975V22.4643H105.368V23.8571H106.761V25.25H108.154V23.8571H109.547V22.4643H110.939V21.0714H113.725V35H110.939V26.6429H109.547V28.0357H108.154V29.4286H106.761V28.0357ZM117.915 32.2143H123.486V35H115.129V21.0714H123.486V23.8571H117.915V26.6429H122.093V29.4286H117.915V32.2143Z" fill="white"/>
</g>
<defs>
<clipPath id="clip0_806_1253">
<rect width="143.3" height="56.45" fill="white"/>
</clipPath>
</defs>
</svg>
